# MagicaVoxel @ Ephtracy

# group
o 

# material
mtllib landFarm000-0.mtl
usemtl palette

# normals
vn -1 0 0
vn 1 0 0
vn 0 0 1
vn 0 0 -1
vn 0 -1 0
vn 0 1 0

# texcoords
vt 0.486328 0.5
vt 0.498047 0.5
vt 0.525391 0.5
vt 0.529297 0.5

# verts
v -9.1 1.1 3
v -9.1 1.1 -3
v -9.1 2.8 3
v -9.1 2.8 0.7
v -9.1 2.9 3
v -9.1 2.9 0.7
v -9.1 2.9 -3
v -6.4 2.7 0.9
v -6.4 2.7 0.8
v -6.4 2.8 0.9
v -6.4 2.8 0.8
v -6.5 2.7 0.9
v -6.5 2.7 0.8
v -6.5 2.8 0.9
v -6.5 2.8 0.8
v -3.1 1.1 3
v -3.1 1.1 -3
v -3.1 2.8 3
v -3.1 2.8 -3
v -3.1 2.9 3
v -3.1 2.9 -3
v -9.1 1.1 3
v -9.1 2.8 3
v -9.1 2.9 3
v -8.9 2.8 3
v -8.9 2.9 3
v -8.6 2.8 3
v -8.6 2.9 3
v -8.4 2.8 3
v -8.4 2.9 3
v -8.2 2.7 3
v -8.2 2.8 3
v -8.1 2.8 3
v -8.1 2.9 3
v -8 2.7 3
v -8 2.8 3
v -7.9 2.8 3
v -7.9 2.9 3
v -7.6 2.8 3
v -7.6 2.9 3
v -7.4 2.8 3
v -7.4 2.9 3
v -7.1 2.8 3
v -7.1 2.9 3
v -6.9 2.8 3
v -6.9 2.9 3
v -6.6 2.8 3
v -6.6 2.9 3
v -6.4 2.8 3
v -6.4 2.9 3
v -6.1 2.8 3
v -6.1 2.9 3
v -5.9 2.8 3
v -5.9 2.9 3
v -5.6 2.8 3
v -5.6 2.9 3
v -5.4 2.8 3
v -5.4 2.9 3
v -5.1 2.8 3
v -5.1 2.9 3
v -3.1 1.1 3
v -3.1 2.8 3
v -3.1 2.9 3
v -6.5 2.7 0.8
v -6.5 2.8 0.8
v -6.4 2.7 0.8
v -6.4 2.8 0.8
v -6.5 2.7 0.9
v -6.5 2.8 0.9
v -6.4 2.7 0.9
v -6.4 2.8 0.9
v -9.1 1.1 -3
v -9.1 2.9 -3
v -3.8 2.8 -3
v -3.8 2.9 -3
v -3.1 1.1 -3
v -3.1 2.8 -3
v -3.1 2.9 -3
v -9.1 1.1 3
v -3.1 1.1 3
v -9.1 1.1 -3
v -3.1 1.1 -3
v -6.5 2.8 0.9
v -6.4 2.8 0.9
v -6.5 2.8 0.8
v -6.4 2.8 0.8
v -6.5 2.7 0.9
v -6.4 2.7 0.9
v -6.5 2.7 0.8
v -6.4 2.7 0.8
v -9.1 2.9 3
v -8.9 2.9 3
v -8.6 2.9 3
v -8.4 2.9 3
v -8.1 2.9 3
v -7.9 2.9 3
v -7.6 2.9 3
v -7.4 2.9 3
v -7.1 2.9 3
v -6.9 2.9 3
v -6.6 2.9 3
v -6.4 2.9 3
v -6.1 2.9 3
v -5.9 2.9 3
v -5.6 2.9 3
v -5.4 2.9 3
v -5.1 2.9 3
v -3.1 2.9 3
v -8.9 2.9 2.8
v -8.8 2.9 2.8
v -8.2 2.9 2.8
v -8.1 2.9 2.8
v -7.9 2.9 2.8
v -7.8 2.9 2.8
v -7.2 2.9 2.8
v -7.1 2.9 2.8
v -6.9 2.9 2.8
v -6.8 2.9 2.8
v -6.2 2.9 2.8
v -6.1 2.9 2.8
v -5.9 2.9 2.8
v -5.8 2.9 2.8
v -5.2 2.9 2.8
v -5.1 2.9 2.8
v -8.8 2.9 2.7
v -8.7 2.9 2.7
v -8.3 2.9 2.7
v -8.2 2.9 2.7
v -7.8 2.9 2.7
v -7.7 2.9 2.7
v -7.3 2.9 2.7
v -7.2 2.9 2.7
v -6.8 2.9 2.7
v -6.7 2.9 2.7
v -6.3 2.9 2.7
v -6.2 2.9 2.7
v -5.8 2.9 2.7
v -5.7 2.9 2.7
v -5.3 2.9 2.7
v -5.2 2.9 2.7
v -8.7 2.9 2.6
v -8.6 2.9 2.6
v -8.4 2.9 2.6
v -8.3 2.9 2.6
v -7.7 2.9 2.6
v -7.6 2.9 2.6
v -7.4 2.9 2.6
v -7.3 2.9 2.6
v -6.7 2.9 2.6
v -6.6 2.9 2.6
v -6.4 2.9 2.6
v -6.3 2.9 2.6
v -5.7 2.9 2.6
v -5.6 2.9 2.6
v -5.4 2.9 2.6
v -5.3 2.9 2.6
v -8.7 2.9 2.3
v -8.6 2.9 2.3
v -8.4 2.9 2.3
v -8.3 2.9 2.3
v -7.7 2.9 2.3
v -7.6 2.9 2.3
v -7.4 2.9 2.3
v -7.3 2.9 2.3
v -6.7 2.9 2.3
v -6.6 2.9 2.3
v -6.4 2.9 2.3
v -6.3 2.9 2.3
v -5.7 2.9 2.3
v -5.6 2.9 2.3
v -5.4 2.9 2.3
v -5.3 2.9 2.3
v -8.8 2.9 2.2
v -8.7 2.9 2.2
v -8.3 2.9 2.2
v -8.2 2.9 2.2
v -7.8 2.9 2.2
v -7.7 2.9 2.2
v -7.3 2.9 2.2
v -7.2 2.9 2.2
v -6.8 2.9 2.2
v -6.7 2.9 2.2
v -6.3 2.9 2.2
v -6.2 2.9 2.2
v -5.8 2.9 2.2
v -5.7 2.9 2.2
v -5.3 2.9 2.2
v -5.2 2.9 2.2
v -8.9 2.9 2.1
v -8.8 2.9 2.1
v -8.2 2.9 2.1
v -8.1 2.9 2.1
v -7.9 2.9 2.1
v -7.8 2.9 2.1
v -7.2 2.9 2.1
v -7.1 2.9 2.1
v -6.9 2.9 2.1
v -6.8 2.9 2.1
v -6.2 2.9 2.1
v -6.1 2.9 2.1
v -5.9 2.9 2.1
v -5.8 2.9 2.1
v -5.2 2.9 2.1
v -5.1 2.9 2.1
v -8.9 2.9 1.9
v -8.8 2.9 1.9
v -8.2 2.9 1.9
v -8.1 2.9 1.9
v -7.9 2.9 1.9
v -7.8 2.9 1.9
v -7.2 2.9 1.9
v -7.1 2.9 1.9
v -6.9 2.9 1.9
v -6.8 2.9 1.9
v -6.2 2.9 1.9
v -6.1 2.9 1.9
v -5.9 2.9 1.9
v -5.8 2.9 1.9
v -5.2 2.9 1.9
v -5.1 2.9 1.9
v -8.8 2.9 1.8
v -8.7 2.9 1.8
v -8.3 2.9 1.8
v -8.2 2.9 1.8
v -7.8 2.9 1.8
v -7.7 2.9 1.8
v -7.3 2.9 1.8
v -7.2 2.9 1.8
v -6.8 2.9 1.8
v -6.7 2.9 1.8
v -6.3 2.9 1.8
v -6.2 2.9 1.8
v -5.8 2.9 1.8
v -5.7 2.9 1.8
v -5.3 2.9 1.8
v -5.2 2.9 1.8
v -8.7 2.9 1.7
v -8.6 2.9 1.7
v -8.4 2.9 1.7
v -8.3 2.9 1.7
v -7.7 2.9 1.7
v -7.6 2.9 1.7
v -7.4 2.9 1.7
v -7.3 2.9 1.7
v -6.7 2.9 1.7
v -6.6 2.9 1.7
v -6.4 2.9 1.7
v -6.3 2.9 1.7
v -5.7 2.9 1.7
v -5.6 2.9 1.7
v -5.4 2.9 1.7
v -5.3 2.9 1.7
v -8.6 2.9 1.5
v -8.4 2.9 1.5
v -7.6 2.9 1.5
v -7.4 2.9 1.5
v -8 2.9 1.4
v -7.4 2.9 1.4
v -6.6 2.9 1.4
v -6.4 2.9 1.4
v -8.2 2.9 1.3
v -8 2.9 1.3
v -7.4 2.9 1.3
v -7.1 2.9 1.3
v -5.6 2.9 1.3
v -5.4 2.9 1.3
v -8.3 2.9 1.2
v -8.2 2.9 1.2
v -7.1 2.9 1.2
v -6.8 2.9 1.2
v -8.5 2.9 1.1
v -8.3 2.9 1.1
v -6.8 2.9 1.1
v -6.4 2.9 1.1
v -8.6 2.9 1
v -8.5 2.9 1
v -6.4 2.9 1
v -6.1 2.9 1
v -8.8 2.9 0.9
v -8.6 2.9 0.9
v -6.1 2.9 0.9
v -6 2.9 0.9
v -8.9 2.9 0.8
v -8.8 2.9 0.8
v -6 2.9 0.8
v -5.8 2.9 0.8
v -9.1 2.9 0.7
v -8.9 2.9 0.7
v -5.8 2.9 0.7
v -5.6 2.9 0.7
v -5.6 2.9 0.6
v -5.5 2.9 0.6
v -5.5 2.9 0.5
v -5.4 2.9 0.5
v -5.4 2.9 0.4
v -5.3 2.9 0.4
v -5.3 2.9 0.3
v -5.2 2.9 0.3
v -5.2 2.9 0.0999999
v -5.1 2.9 0.0999999
v -5.1 2.9 -2.38419e-07
v -5 2.9 -2.38419e-07
v -5 2.9 -0.1
v -4.9 2.9 -0.1
v -4.9 2.9 -0.2
v -4.8 2.9 -0.2
v -4.8 2.9 -0.3
v -4.6 2.9 -0.3
v -4.6 2.9 -0.4
v -4.5 2.9 -0.4
v -4.5 2.9 -0.5
v -4.4 2.9 -0.5
v -4.4 2.9 -0.7
v -4.3 2.9 -0.7
v -4.3 2.9 -0.9
v -4.2 2.9 -0.9
v -4.2 2.9 -1.5
v -4.1 2.9 -1.5
v -4.1 2.9 -1.9
v -4 2.9 -1.9
v -4 2.9 -2.2
v -3.9 2.9 -2.2
v -3.9 2.9 -2.6
v -3.8 2.9 -2.6
v -9.1 2.9 -3
v -3.8 2.9 -3
v -3.1 2.9 -3

# faces
f 3/1/1 2/1/1 1/1/1
f 4/1/1 2/1/1 3/1/1
f 5/2/1 4/2/1 3/2/1
f 6/1/1 2/1/1 4/1/1
f 6/2/1 4/2/1 5/2/1
f 7/1/1 2/1/1 6/1/1
f 10/1/1 9/1/1 8/1/1
f 11/1/1 9/1/1 10/1/1
f 12/1/2 13/1/2 14/1/2
f 14/1/2 13/1/2 15/1/2
f 16/1/2 17/1/2 18/1/2
f 18/1/2 17/1/2 19/1/2
f 18/2/2 19/2/2 20/2/2
f 20/2/2 19/2/2 21/2/2
f 25/1/3 23/1/3 22/1/3
f 25/2/3 24/2/3 23/2/3
f 26/2/3 24/2/3 25/2/3
f 27/1/3 25/1/3 22/1/3
f 27/4/3 26/4/3 25/4/3
f 28/4/3 26/4/3 27/4/3
f 29/1/3 27/1/3 22/1/3
f 29/1/3 28/1/3 27/1/3
f 30/1/3 28/1/3 29/1/3
f 31/1/3 29/1/3 22/1/3
f 32/4/3 30/4/3 29/4/3
f 32/1/3 29/1/3 31/1/3
f 33/4/3 32/4/3 31/4/3
f 33/4/3 30/4/3 32/4/3
f 34/4/3 30/4/3 33/4/3
f 35/1/3 31/1/3 22/1/3
f 35/4/3 33/4/3 31/4/3
f 36/2/3 34/2/3 33/2/3
f 36/4/3 33/4/3 35/4/3
f 37/1/3 36/1/3 35/1/3
f 37/2/3 34/2/3 36/2/3
f 38/2/3 34/2/3 37/2/3
f 39/1/3 37/1/3 35/1/3
f 39/4/3 38/4/3 37/4/3
f 40/4/3 38/4/3 39/4/3
f 41/1/3 39/1/3 35/1/3
f 41/1/3 40/1/3 39/1/3
f 42/1/3 40/1/3 41/1/3
f 43/1/3 41/1/3 35/1/3
f 43/4/3 42/4/3 41/4/3
f 44/4/3 42/4/3 43/4/3
f 45/1/3 43/1/3 35/1/3
f 45/2/3 44/2/3 43/2/3
f 46/2/3 44/2/3 45/2/3
f 47/1/3 45/1/3 35/1/3
f 47/4/3 46/4/3 45/4/3
f 48/4/3 46/4/3 47/4/3
f 49/1/3 47/1/3 35/1/3
f 49/1/3 48/1/3 47/1/3
f 50/1/3 48/1/3 49/1/3
f 51/1/3 49/1/3 35/1/3
f 51/4/3 50/4/3 49/4/3
f 52/4/3 50/4/3 51/4/3
f 53/1/3 51/1/3 35/1/3
f 53/2/3 52/2/3 51/2/3
f 54/2/3 52/2/3 53/2/3
f 55/1/3 53/1/3 35/1/3
f 55/4/3 54/4/3 53/4/3
f 56/4/3 54/4/3 55/4/3
f 57/1/3 55/1/3 35/1/3
f 57/1/3 56/1/3 55/1/3
f 58/1/3 56/1/3 57/1/3
f 59/1/3 57/1/3 35/1/3
f 59/4/3 58/4/3 57/4/3
f 60/4/3 58/4/3 59/4/3
f 61/1/3 35/1/3 22/1/3
f 61/1/3 59/1/3 35/1/3
f 62/2/3 60/2/3 59/2/3
f 62/1/3 59/1/3 61/1/3
f 63/2/3 60/2/3 62/2/3
f 66/1/3 65/1/3 64/1/3
f 67/1/3 65/1/3 66/1/3
f 68/1/4 69/1/4 70/1/4
f 70/1/4 69/1/4 71/1/4
f 72/1/4 73/1/4 74/1/4
f 74/1/4 73/1/4 75/1/4
f 72/1/4 74/1/4 76/1/4
f 74/2/4 75/2/4 77/2/4
f 76/1/4 74/1/4 77/1/4
f 77/2/4 75/2/4 78/2/4
f 81/1/5 80/1/5 79/1/5
f 82/1/5 80/1/5 81/1/5
f 85/1/5 84/1/5 83/1/5
f 86/1/5 84/1/5 85/1/5
f 87/3/6 88/3/6 89/3/6
f 89/3/6 88/3/6 90/3/6
f 91/2/6 92/2/6 109/2/6
f 92/4/6 93/4/6 109/4/6
f 109/4/6 93/4/6 110/4/6
f 94/4/6 95/4/6 111/4/6
f 95/2/6 96/2/6 112/2/6
f 111/4/6 95/4/6 112/4/6
f 96/4/6 97/4/6 113/4/6
f 112/2/6 96/2/6 113/2/6
f 113/4/6 97/4/6 114/4/6
f 98/4/6 99/4/6 115/4/6
f 99/2/6 100/2/6 116/2/6
f 115/4/6 99/4/6 116/4/6
f 100/4/6 101/4/6 117/4/6
f 116/2/6 100/2/6 117/2/6
f 117/4/6 101/4/6 118/4/6
f 102/4/6 103/4/6 119/4/6
f 103/2/6 104/2/6 120/2/6
f 119/4/6 103/4/6 120/4/6
f 104/4/6 105/4/6 121/4/6
f 120/2/6 104/2/6 121/2/6
f 121/4/6 105/4/6 122/4/6
f 106/4/6 107/4/6 123/4/6
f 107/2/6 108/2/6 124/2/6
f 123/4/6 107/4/6 124/4/6
f 110/4/6 93/4/6 125/4/6
f 109/2/6 110/2/6 125/2/6
f 125/4/6 93/4/6 126/4/6
f 94/4/6 111/4/6 127/4/6
f 111/2/6 112/2/6 128/2/6
f 127/4/6 111/4/6 128/4/6
f 112/2/6 113/2/6 128/2/6
f 113/2/6 114/2/6 128/2/6
f 114/4/6 97/4/6 129/4/6
f 128/2/6 114/2/6 129/2/6
f 129/4/6 97/4/6 130/4/6
f 98/4/6 115/4/6 131/4/6
f 115/2/6 116/2/6 132/2/6
f 131/4/6 115/4/6 132/4/6
f 116/2/6 117/2/6 132/2/6
f 117/2/6 118/2/6 132/2/6
f 118/4/6 101/4/6 133/4/6
f 132/2/6 118/2/6 133/2/6
f 133/4/6 101/4/6 134/4/6
f 102/4/6 119/4/6 135/4/6
f 119/2/6 120/2/6 136/2/6
f 135/4/6 119/4/6 136/4/6
f 120/2/6 121/2/6 136/2/6
f 121/2/6 122/2/6 136/2/6
f 122/4/6 105/4/6 137/4/6
f 136/2/6 122/2/6 137/2/6
f 137/4/6 105/4/6 138/4/6
f 106/4/6 123/4/6 139/4/6
f 123/2/6 124/2/6 140/2/6
f 139/4/6 123/4/6 140/4/6
f 126/4/6 93/4/6 141/4/6
f 125/2/6 126/2/6 141/2/6
f 93/1/6 94/1/6 142/1/6
f 141/4/6 93/4/6 142/4/6
f 94/4/6 127/4/6 143/4/6
f 142/1/6 94/1/6 143/1/6
f 127/2/6 128/2/6 144/2/6
f 143/4/6 127/4/6 144/4/6
f 129/2/6 130/2/6 144/2/6
f 128/2/6 129/2/6 144/2/6
f 130/4/6 97/4/6 145/4/6
f 144/2/6 130/2/6 145/2/6
f 97/1/6 98/1/6 146/1/6
f 145/4/6 97/4/6 146/4/6
f 98/4/6 131/4/6 147/4/6
f 146/1/6 98/1/6 147/1/6
f 131/2/6 132/2/6 148/2/6
f 147/4/6 131/4/6 148/4/6
f 133/2/6 134/2/6 148/2/6
f 132/2/6 133/2/6 148/2/6
f 134/4/6 101/4/6 149/4/6
f 148/2/6 134/2/6 149/2/6
f 101/1/6 102/1/6 150/1/6
f 149/4/6 101/4/6 150/4/6
f 102/4/6 135/4/6 151/4/6
f 150/1/6 102/1/6 151/1/6
f 135/2/6 136/2/6 152/2/6
f 151/4/6 135/4/6 152/4/6
f 137/2/6 138/2/6 152/2/6
f 136/2/6 137/2/6 152/2/6
f 138/4/6 105/4/6 153/4/6
f 152/2/6 138/2/6 153/2/6
f 105/1/6 106/1/6 154/1/6
f 153/4/6 105/4/6 154/4/6
f 106/4/6 139/4/6 155/4/6
f 154/1/6 106/1/6 155/1/6
f 139/2/6 140/2/6 156/2/6
f 155/4/6 139/4/6 156/4/6
f 125/2/6 141/2/6 157/2/6
f 141/2/6 142/2/6 157/2/6
f 142/1/6 143/1/6 158/1/6
f 157/2/6 142/2/6 158/2/6
f 144/2/6 145/2/6 159/2/6
f 158/1/6 143/1/6 159/1/6
f 143/2/6 144/2/6 159/2/6
f 145/2/6 146/2/6 159/2/6
f 159/2/6 146/2/6 160/2/6
f 160/2/6 146/2/6 161/2/6
f 146/1/6 147/1/6 162/1/6
f 161/2/6 146/2/6 162/2/6
f 148/2/6 149/2/6 163/2/6
f 162/1/6 147/1/6 163/1/6
f 147/2/6 148/2/6 163/2/6
f 149/2/6 150/2/6 163/2/6
f 163/2/6 150/2/6 164/2/6
f 164/2/6 150/2/6 165/2/6
f 150/1/6 151/1/6 166/1/6
f 165/2/6 150/2/6 166/2/6
f 151/2/6 152/2/6 167/2/6
f 166/1/6 151/1/6 167/1/6
f 152/2/6 153/2/6 167/2/6
f 153/2/6 154/2/6 167/2/6
f 167/2/6 154/2/6 168/2/6
f 168/2/6 154/2/6 169/2/6
f 154/1/6 155/1/6 170/1/6
f 169/2/6 154/2/6 170/2/6
f 155/2/6 156/2/6 171/2/6
f 170/1/6 155/1/6 171/1/6
f 156/2/6 140/2/6 172/2/6
f 171/2/6 156/2/6 172/2/6
f 125/2/6 157/2/6 173/2/6
f 109/2/6 125/2/6 173/2/6
f 157/4/6 158/4/6 174/4/6
f 173/2/6 157/2/6 174/2/6
f 160/2/6 161/2/6 175/2/6
f 159/4/6 160/4/6 175/4/6
f 175/2/6 161/2/6 176/2/6
f 176/2/6 161/2/6 177/2/6
f 161/4/6 162/4/6 178/4/6
f 177/2/6 161/2/6 178/2/6
f 164/2/6 165/2/6 179/2/6
f 163/4/6 164/4/6 179/4/6
f 179/2/6 165/2/6 180/2/6
f 180/2/6 165/2/6 181/2/6
f 165/4/6 166/4/6 182/4/6
f 181/2/6 165/2/6 182/2/6
f 168/2/6 169/2/6 183/2/6
f 167/4/6 168/4/6 183/4/6
f 183/2/6 169/2/6 184/2/6
f 184/2/6 169/2/6 185/2/6
f 169/4/6 170/4/6 186/4/6
f 185/2/6 169/2/6 186/2/6
f 172/2/6 140/2/6 187/2/6
f 171/4/6 172/4/6 187/4/6
f 140/2/6 124/2/6 188/2/6
f 187/2/6 140/2/6 188/2/6
f 109/2/6 173/2/6 189/2/6
f 91/2/6 109/2/6 189/2/6
f 173/4/6 174/4/6 190/4/6
f 189/2/6 173/2/6 190/2/6
f 176/2/6 177/2/6 191/2/6
f 175/4/6 176/4/6 191/4/6
f 191/2/6 177/2/6 192/2/6
f 192/2/6 177/2/6 193/2/6
f 177/4/6 178/4/6 194/4/6
f 193/2/6 177/2/6 194/2/6
f 180/2/6 181/2/6 195/2/6
f 179/4/6 180/4/6 195/4/6
f 195/2/6 181/2/6 196/2/6
f 196/2/6 181/2/6 197/2/6
f 181/4/6 182/4/6 198/4/6
f 197/2/6 181/2/6 198/2/6
f 184/2/6 185/2/6 199/2/6
f 183/4/6 184/4/6 199/4/6
f 199/2/6 185/2/6 200/2/6
f 200/2/6 185/2/6 201/2/6
f 185/4/6 186/4/6 202/4/6
f 201/2/6 185/2/6 202/2/6
f 188/2/6 124/2/6 203/2/6
f 187/4/6 188/4/6 203/4/6
f 124/2/6 108/2/6 204/2/6
f 203/2/6 124/2/6 204/2/6
f 91/2/6 189/2/6 205/2/6
f 189/4/6 190/4/6 205/4/6
f 190/4/6 174/4/6 206/4/6
f 205/4/6 190/4/6 206/4/6
f 175/4/6 191/4/6 207/4/6
f 191/4/6 192/4/6 207/4/6
f 192/2/6 193/2/6 208/2/6
f 207/4/6 192/4/6 208/4/6
f 193/4/6 194/4/6 209/4/6
f 208/2/6 193/2/6 209/2/6
f 194/4/6 178/4/6 210/4/6
f 209/4/6 194/4/6 210/4/6
f 179/4/6 195/4/6 211/4/6
f 195/4/6 196/4/6 211/4/6
f 196/2/6 197/2/6 212/2/6
f 211/4/6 196/4/6 212/4/6
f 197/4/6 198/4/6 213/4/6
f 212/2/6 197/2/6 213/2/6
f 198/4/6 182/4/6 214/4/6
f 213/4/6 198/4/6 214/4/6
f 183/4/6 199/4/6 215/4/6
f 199/4/6 200/4/6 215/4/6
f 200/2/6 201/2/6 216/2/6
f 215/4/6 200/4/6 216/4/6
f 201/4/6 202/4/6 217/4/6
f 216/2/6 201/2/6 217/2/6
f 202/4/6 186/4/6 218/4/6
f 217/4/6 202/4/6 218/4/6
f 187/4/6 203/4/6 219/4/6
f 203/4/6 204/4/6 219/4/6
f 204/2/6 108/2/6 220/2/6
f 219/4/6 204/4/6 220/4/6
f 206/4/6 174/4/6 221/4/6
f 205/2/6 206/2/6 221/2/6
f 174/4/6 158/4/6 222/4/6
f 221/4/6 174/4/6 222/4/6
f 175/4/6 207/4/6 223/4/6
f 159/4/6 175/4/6 223/4/6
f 208/2/6 209/2/6 224/2/6
f 223/4/6 207/4/6 224/4/6
f 207/2/6 208/2/6 224/2/6
f 209/2/6 210/2/6 224/2/6
f 210/4/6 178/4/6 225/4/6
f 224/2/6 210/2/6 225/2/6
f 178/4/6 162/4/6 226/4/6
f 225/4/6 178/4/6 226/4/6
f 179/4/6 211/4/6 227/4/6
f 163/4/6 179/4/6 227/4/6
f 212/2/6 213/2/6 228/2/6
f 227/4/6 211/4/6 228/4/6
f 213/2/6 214/2/6 228/2/6
f 211/2/6 212/2/6 228/2/6
f 214/4/6 182/4/6 229/4/6
f 228/2/6 214/2/6 229/2/6
f 182/4/6 166/4/6 230/4/6
f 229/4/6 182/4/6 230/4/6
f 183/4/6 215/4/6 231/4/6
f 167/4/6 183/4/6 231/4/6
f 216/2/6 217/2/6 232/2/6
f 231/4/6 215/4/6 232/4/6
f 215/2/6 216/2/6 232/2/6
f 217/2/6 218/2/6 232/2/6
f 218/4/6 186/4/6 233/4/6
f 232/2/6 218/2/6 233/2/6
f 186/4/6 170/4/6 234/4/6
f 233/4/6 186/4/6 234/4/6
f 171/4/6 187/4/6 235/4/6
f 187/4/6 219/4/6 235/4/6
f 219/2/6 220/2/6 236/2/6
f 235/4/6 219/4/6 236/4/6
f 222/4/6 158/4/6 237/4/6
f 221/2/6 222/2/6 237/2/6
f 158/1/6 159/1/6 238/1/6
f 237/4/6 158/4/6 238/4/6
f 159/4/6 223/4/6 239/4/6
f 238/1/6 159/1/6 239/1/6
f 224/2/6 225/2/6 240/2/6
f 239/4/6 223/4/6 240/4/6
f 225/2/6 226/2/6 240/2/6
f 223/2/6 224/2/6 240/2/6
f 226/4/6 162/4/6 241/4/6
f 240/2/6 226/2/6 241/2/6
f 162/1/6 163/1/6 242/1/6
f 241/4/6 162/4/6 242/4/6
f 163/4/6 227/4/6 243/4/6
f 242/1/6 163/1/6 243/1/6
f 228/2/6 229/2/6 244/2/6
f 243/4/6 227/4/6 244/4/6
f 229/2/6 230/2/6 244/2/6
f 227/2/6 228/2/6 244/2/6
f 230/4/6 166/4/6 245/4/6
f 244/2/6 230/2/6 245/2/6
f 166/1/6 167/1/6 246/1/6
f 245/4/6 166/4/6 246/4/6
f 167/4/6 231/4/6 247/4/6
f 246/1/6 167/1/6 247/1/6
f 231/2/6 232/2/6 248/2/6
f 247/4/6 231/4/6 248/4/6
f 232/2/6 233/2/6 248/2/6
f 233/2/6 234/2/6 248/2/6
f 234/4/6 170/4/6 249/4/6
f 248/2/6 234/2/6 249/2/6
f 170/1/6 171/1/6 250/1/6
f 249/4/6 170/4/6 250/4/6
f 171/4/6 235/4/6 251/4/6
f 250/1/6 171/1/6 251/1/6
f 235/2/6 236/2/6 252/2/6
f 251/4/6 235/4/6 252/4/6
f 237/2/6 238/2/6 253/2/6
f 238/1/6 239/1/6 253/1/6
f 241/2/6 242/2/6 254/2/6
f 253/1/6 239/1/6 254/1/6
f 240/2/6 241/2/6 254/2/6
f 239/2/6 240/2/6 254/2/6
f 242/1/6 243/1/6 255/1/6
f 254/2/6 242/2/6 255/2/6
f 245/2/6 246/2/6 256/2/6
f 255/1/6 243/1/6 256/1/6
f 243/2/6 244/2/6 256/2/6
f 244/2/6 245/2/6 256/2/6
f 254/2/6 255/2/6 257/2/6
f 253/2/6 254/2/6 257/2/6
f 255/2/6 256/2/6 257/2/6
f 256/2/6 246/2/6 258/2/6
f 257/2/6 256/2/6 258/2/6
f 246/1/6 247/1/6 259/1/6
f 258/2/6 246/2/6 259/2/6
f 248/2/6 249/2/6 260/2/6
f 259/1/6 247/1/6 260/1/6
f 247/2/6 248/2/6 260/2/6
f 249/2/6 250/2/6 260/2/6
f 253/2/6 257/2/6 261/2/6
f 257/1/6 258/1/6 262/1/6
f 261/2/6 257/2/6 262/2/6
f 258/2/6 259/2/6 263/2/6
f 262/1/6 258/1/6 263/1/6
f 259/2/6 260/2/6 263/2/6
f 263/2/6 260/2/6 264/2/6
f 260/2/6 250/2/6 265/2/6
f 264/2/6 260/2/6 265/2/6
f 250/1/6 251/1/6 265/1/6
f 251/2/6 252/2/6 266/2/6
f 265/1/6 251/1/6 266/1/6
f 253/2/6 261/2/6 267/2/6
f 261/1/6 262/1/6 268/1/6
f 267/2/6 261/2/6 268/2/6
f 263/1/6 264/1/6 268/1/6
f 262/1/6 263/1/6 268/1/6
f 264/2/6 265/2/6 269/2/6
f 268/1/6 264/1/6 269/1/6
f 265/2/6 266/2/6 269/2/6
f 269/2/6 266/2/6 270/2/6
f 253/2/6 267/2/6 271/2/6
f 267/1/6 268/1/6 272/1/6
f 271/2/6 267/2/6 272/2/6
f 268/1/6 269/1/6 272/1/6
f 269/1/6 270/1/6 272/1/6
f 270/2/6 266/2/6 273/2/6
f 272/1/6 270/1/6 273/1/6
f 273/2/6 266/2/6 274/2/6
f 253/2/6 271/2/6 275/2/6
f 237/2/6 253/2/6 275/2/6
f 271/1/6 272/1/6 276/1/6
f 275/2/6 271/2/6 276/2/6
f 273/1/6 274/1/6 276/1/6
f 272/1/6 273/1/6 276/1/6
f 274/2/6 266/2/6 277/2/6
f 276/1/6 274/1/6 277/1/6
f 277/2/6 266/2/6 278/2/6
f 237/2/6 275/2/6 279/2/6
f 221/2/6 237/2/6 279/2/6
f 205/2/6 221/2/6 279/2/6
f 275/1/6 276/1/6 280/1/6
f 279/2/6 275/2/6 280/2/6
f 277/1/6 278/1/6 280/1/6
f 276/1/6 277/1/6 280/1/6
f 278/2/6 266/2/6 281/2/6
f 280/1/6 278/1/6 281/1/6
f 281/2/6 266/2/6 282/2/6
f 205/2/6 279/2/6 283/2/6
f 91/2/6 205/2/6 283/2/6
f 279/1/6 280/1/6 284/1/6
f 283/2/6 279/2/6 284/2/6
f 281/1/6 282/1/6 284/1/6
f 280/1/6 281/1/6 284/1/6
f 282/2/6 266/2/6 285/2/6
f 284/1/6 282/1/6 285/1/6
f 285/2/6 266/2/6 286/2/6
f 91/2/6 283/2/6 287/2/6
f 283/1/6 284/1/6 288/1/6
f 287/2/6 283/2/6 288/2/6
f 284/1/6 285/1/6 288/1/6
f 285/1/6 286/1/6 288/1/6
f 286/2/6 266/2/6 289/2/6
f 288/1/6 286/1/6 289/1/6
f 289/2/6 266/2/6 290/2/6
f 287/1/6 288/1/6 291/1/6
f 290/2/6 266/2/6 291/2/6
f 289/1/6 290/1/6 291/1/6
f 288/1/6 289/1/6 291/1/6
f 291/2/6 266/2/6 292/2/6
f 291/1/6 292/1/6 293/1/6
f 292/2/6 266/2/6 293/2/6
f 266/2/6 252/2/6 294/2/6
f 293/2/6 266/2/6 294/2/6
f 293/1/6 294/1/6 295/1/6
f 294/2/6 252/2/6 295/2/6
f 252/2/6 236/2/6 296/2/6
f 295/2/6 252/2/6 296/2/6
f 295/1/6 296/1/6 297/1/6
f 296/2/6 236/2/6 297/2/6
f 236/2/6 220/2/6 298/2/6
f 297/2/6 236/2/6 298/2/6
f 297/1/6 298/1/6 299/1/6
f 298/2/6 220/2/6 299/2/6
f 220/2/6 108/2/6 300/2/6
f 299/2/6 220/2/6 300/2/6
f 299/1/6 300/1/6 301/1/6
f 300/2/6 108/2/6 301/2/6
f 301/2/6 108/2/6 302/2/6
f 301/1/6 302/1/6 303/1/6
f 302/2/6 108/2/6 303/2/6
f 303/2/6 108/2/6 304/2/6
f 303/1/6 304/1/6 305/1/6
f 304/2/6 108/2/6 305/2/6
f 305/2/6 108/2/6 306/2/6
f 305/1/6 306/1/6 307/1/6
f 306/2/6 108/2/6 307/2/6
f 307/2/6 108/2/6 308/2/6
f 307/1/6 308/1/6 309/1/6
f 308/2/6 108/2/6 309/2/6
f 309/2/6 108/2/6 310/2/6
f 309/1/6 310/1/6 311/1/6
f 310/2/6 108/2/6 311/2/6
f 311/2/6 108/2/6 312/2/6
f 311/1/6 312/1/6 313/1/6
f 312/2/6 108/2/6 313/2/6
f 313/2/6 108/2/6 314/2/6
f 313/1/6 314/1/6 315/1/6
f 314/2/6 108/2/6 315/2/6
f 315/2/6 108/2/6 316/2/6
f 315/1/6 316/1/6 317/1/6
f 316/2/6 108/2/6 317/2/6
f 317/2/6 108/2/6 318/2/6
f 317/1/6 318/1/6 319/1/6
f 318/2/6 108/2/6 319/2/6
f 319/2/6 108/2/6 320/2/6
f 319/1/6 320/1/6 321/1/6
f 320/2/6 108/2/6 321/2/6
f 321/2/6 108/2/6 322/2/6
f 321/1/6 322/1/6 323/1/6
f 322/2/6 108/2/6 323/2/6
f 323/2/6 108/2/6 324/2/6
f 293/1/6 295/1/6 325/1/6
f 295/1/6 297/1/6 325/1/6
f 323/1/6 324/1/6 325/1/6
f 321/1/6 323/1/6 325/1/6
f 319/1/6 321/1/6 325/1/6
f 317/1/6 319/1/6 325/1/6
f 315/1/6 317/1/6 325/1/6
f 313/1/6 315/1/6 325/1/6
f 311/1/6 313/1/6 325/1/6
f 309/1/6 311/1/6 325/1/6
f 307/1/6 309/1/6 325/1/6
f 305/1/6 307/1/6 325/1/6
f 303/1/6 305/1/6 325/1/6
f 301/1/6 303/1/6 325/1/6
f 299/1/6 301/1/6 325/1/6
f 287/1/6 291/1/6 325/1/6
f 297/1/6 299/1/6 325/1/6
f 291/1/6 293/1/6 325/1/6
f 324/2/6 108/2/6 326/2/6
f 325/1/6 324/1/6 326/1/6
f 326/2/6 108/2/6 327/2/6
